<?xml version="1.0" encoding="utf-8"?>
<!-- Generator: Adobe Illustrator 23.0.3, SVG Export Plug-In . SVG Version: 6.00 Build 0)  -->
<svg version="1.1" id="Layer_1" xmlns="http://www.w3.org/2000/svg" xmlns:xlink="http://www.w3.org/1999/xlink" x="0px" y="0px"
	 viewBox="0 0 512 512" style="enable-background:new 0 0 512 512;" xml:space="preserve">
<style type="text/css">
	.st0{fill:none;stroke:#231F20;stroke-width:15;stroke-miterlimit:10;}
	.st1{enable-background:new    ;}
	.st2{fill:#825400;}
	.st3{fill:#B47500;}
	.st4{fill:#DF9000;}
	.st5{clip-path:url(#SVGID_2_);enable-background:new    ;}
	.st6{fill:#996300;}
	.st7{fill:#946000;}
	.st8{fill:#8F5C00;}
	.st9{fill:#8A5900;}
	.st10{fill:#855600;}
	.st11{clip-path:url(#SVGID_4_);enable-background:new    ;}
	.st12{clip-path:url(#SVGID_6_);enable-background:new    ;}
	.st13{fill:#A86D00;}
	.st14{fill:#A36A00;}
	.st15{fill:#9E6600;}
	.st16{clip-path:url(#SVGID_8_);enable-background:new    ;}
	.st17{clip-path:url(#SVGID_10_);enable-background:new    ;}
	.st18{clip-path:url(#SVGID_12_);enable-background:new    ;}
	.st19{clip-path:url(#SVGID_14_);enable-background:new    ;}
	.st20{clip-path:url(#SVGID_16_);enable-background:new    ;}
	.st21{clip-path:url(#SVGID_18_);enable-background:new    ;}
	.st22{clip-path:url(#SVGID_20_);enable-background:new    ;}
	.st23{clip-path:url(#SVGID_22_);enable-background:new    ;}
	.st24{clip-path:url(#SVGID_24_);enable-background:new    ;}
	.st25{clip-path:url(#SVGID_26_);enable-background:new    ;}
	.st26{clip-path:url(#SVGID_28_);enable-background:new    ;}
	.st27{clip-path:url(#SVGID_30_);enable-background:new    ;}
	.st28{clip-path:url(#SVGID_32_);enable-background:new    ;}
	.st29{clip-path:url(#SVGID_34_);enable-background:new    ;}
	.st30{clip-path:url(#SVGID_36_);enable-background:new    ;}
	.st31{fill:#905D00;}
	.st32{clip-path:url(#SVGID_38_);enable-background:new    ;}
	.st33{clip-path:url(#SVGID_40_);enable-background:new    ;}
	.st34{clip-path:url(#SVGID_42_);enable-background:new    ;}
	.st35{clip-path:url(#SVGID_44_);enable-background:new    ;}
	.st36{clip-path:url(#SVGID_46_);enable-background:new    ;}
	.st37{clip-path:url(#SVGID_48_);enable-background:new    ;}
	.st38{clip-path:url(#SVGID_50_);enable-background:new    ;}
	.st39{clip-path:url(#SVGID_52_);enable-background:new    ;}
	.st40{clip-path:url(#SVGID_54_);enable-background:new    ;}
	.st41{clip-path:url(#SVGID_56_);enable-background:new    ;}
	.st42{clip-path:url(#SVGID_58_);enable-background:new    ;}
	.st43{clip-path:url(#SVGID_60_);enable-background:new    ;}
	.st44{clip-path:url(#SVGID_62_);enable-background:new    ;}
	.st45{clip-path:url(#SVGID_64_);enable-background:new    ;}
	.st46{clip-path:url(#SVGID_66_);enable-background:new    ;}
	.st47{clip-path:url(#SVGID_68_);enable-background:new    ;}
	.st48{clip-path:url(#SVGID_70_);enable-background:new    ;}
	.st49{clip-path:url(#SVGID_72_);enable-background:new    ;}
	.st50{clip-path:url(#SVGID_74_);enable-background:new    ;}
	.st51{clip-path:url(#SVGID_76_);enable-background:new    ;}
	.st52{clip-path:url(#SVGID_78_);enable-background:new    ;}
	.st53{clip-path:url(#SVGID_80_);enable-background:new    ;}
	.st54{clip-path:url(#SVGID_82_);enable-background:new    ;}
	.st55{clip-path:url(#SVGID_84_);enable-background:new    ;}
	.st56{clip-path:url(#SVGID_86_);enable-background:new    ;}
	.st57{clip-path:url(#SVGID_88_);enable-background:new    ;}
	.st58{clip-path:url(#SVGID_90_);enable-background:new    ;}
	.st59{fill:#121010;}
	.st60{fill:#191617;}
	.st61{fill:#1F1B1C;}
	.st62{clip-path:url(#SVGID_92_);enable-background:new    ;}
	.st63{fill:#141213;}
	.st64{fill:#141112;}
	.st65{fill:#131111;}
	.st66{fill:#121011;}
	.st67{clip-path:url(#SVGID_94_);enable-background:new    ;}
	.st68{fill:#161314;}
	.st69{fill:#161414;}
	.st70{fill:#171415;}
	.st71{fill:#151313;}
	.st72{clip-path:url(#SVGID_96_);enable-background:new    ;}
	.st73{clip-path:url(#SVGID_98_);enable-background:new    ;}
	.st74{clip-path:url(#SVGID_100_);enable-background:new    ;}
	.st75{clip-path:url(#SVGID_102_);enable-background:new    ;}
	.st76{clip-path:url(#SVGID_104_);enable-background:new    ;}
	.st77{clip-path:url(#SVGID_106_);enable-background:new    ;}
	.st78{clip-path:url(#SVGID_108_);enable-background:new    ;}
	.st79{clip-path:url(#SVGID_110_);enable-background:new    ;}
	.st80{clip-path:url(#SVGID_112_);enable-background:new    ;}
	.st81{clip-path:url(#SVGID_114_);enable-background:new    ;}
	.st82{clip-path:url(#SVGID_116_);enable-background:new    ;}
	.st83{clip-path:url(#SVGID_118_);enable-background:new    ;}
	.st84{clip-path:url(#SVGID_120_);enable-background:new    ;}
	.st85{clip-path:url(#SVGID_122_);enable-background:new    ;}
	.st86{clip-path:url(#SVGID_124_);enable-background:new    ;}
	.st87{clip-path:url(#SVGID_126_);enable-background:new    ;}
	.st88{clip-path:url(#SVGID_128_);enable-background:new    ;}
	.st89{clip-path:url(#SVGID_130_);enable-background:new    ;}
	.st90{clip-path:url(#SVGID_132_);enable-background:new    ;}
	.st91{clip-path:url(#SVGID_134_);enable-background:new    ;}
	.st92{clip-path:url(#SVGID_136_);enable-background:new    ;}
	.st93{fill:#FFA500;}
	.st94{fill:#073344;}
	.st95{fill:#ECEEF1;}
</style>
<circle class="st0" cx="256" cy="256" r="204"/>
<g>
	<g>
		<g class="st1">
			<g>
				<polygon class="st59" points="185.47,377.09 162.68,364.69 162.94,224.93 185.73,237.32 				"/>
			</g>
			<g>
				<polygon class="st59" points="163.28,240.48 140.49,228.08 140.56,189.16 163.35,201.56 				"/>
			</g>
			<g>
				<polygon class="st60" points="163.35,201.56 140.56,189.16 203.38,180.33 226.17,192.73 				"/>
			</g>
			<g>
				<polygon class="st61" points="226.17,192.73 225.84,371.42 185.47,377.09 185.73,237.32 163.28,240.48 163.35,201.56 				"/>
			</g>
		</g>
		<g class="st1">
			<g class="st1">
				<defs>
					<path id="SVGID_91_" class="st1" d="M306.54,264.52l22.79,12.4c1.28,0.7,2.43,1.57,3.46,2.63c3.77,3.88,5.65,9.65,5.64,17.32
						c-0.01,7.5-1.96,13.7-5.82,18.56l-22.79-12.4c3.86-4.86,5.8-11.06,5.82-18.56c0.01-7.67-1.86-13.44-5.64-17.32
						C308.98,266.09,307.82,265.21,306.54,264.52z"/>
				</defs>
				<clipPath id="SVGID_2_">
					<use xlink:href="#SVGID_91_"  style="overflow:visible;"/>
				</clipPath>
				<g class="st5">
					<path class="st63" d="M332.62,315.43l-22.79-12.4c0.3-0.38,0.6-0.77,0.88-1.17l22.79,12.4
						C333.22,314.65,332.92,315.04,332.62,315.43"/>
					<path class="st64" d="M333.5,314.25l-22.79-12.4c0.56-0.8,1.07-1.63,1.54-2.5l22.79,12.4
						C334.57,312.62,334.06,313.45,333.5,314.25"/>
					<path class="st65" d="M335.04,311.75l-22.79-12.4c0.57-1.07,1.08-2.19,1.51-3.35l22.79,12.4
						C336.11,309.57,335.61,310.69,335.04,311.75"/>
					<path class="st66" d="M336.54,308.4L313.75,296c1.26-3.42,1.89-7.27,1.9-11.54c0.01-7.67-1.86-13.44-5.64-17.32
						c-1.03-1.06-2.18-1.94-3.46-2.63l22.79,12.4c1.28,0.7,2.43,1.57,3.46,2.63c3.77,3.88,5.65,9.65,5.64,17.32
						C338.43,301.13,337.8,304.98,336.54,308.4"/>
				</g>
			</g>
			<g class="st1">
				<defs>
					<path id="SVGID_93_" class="st1" d="M303.03,322.33l-22.79-12.4c3.64,1.98,8.25,2.58,13.82,1.8c6.66-0.94,11.92-3.84,15.78-8.7
						l22.79,12.4c-3.86,4.86-9.12,7.76-15.78,8.7C311.27,324.91,306.67,324.31,303.03,322.33z"/>
				</defs>
				<clipPath id="SVGID_4_">
					<use xlink:href="#SVGID_93_"  style="overflow:visible;"/>
				</clipPath>
				<g class="st11">
					<path class="st68" d="M303.03,322.33l-22.79-12.4c0.19,0.1,0.38,0.2,0.57,0.29l22.79,12.4
						C303.4,322.53,303.21,322.43,303.03,322.33"/>
					<path class="st69" d="M303.59,322.62l-22.79-12.4c1,0.49,2.06,0.88,3.2,1.18l22.79,12.4
						C305.66,323.51,304.59,323.11,303.59,322.62"/>
					<path class="st70" d="M306.79,323.8L284,311.4c2.9,0.75,6.25,0.86,10.05,0.33c2.79-0.39,5.34-1.13,7.64-2.21l22.79,12.4
						c-2.3,1.08-4.84,1.82-7.64,2.21C313.04,324.66,309.7,324.55,306.79,323.8"/>
					<path class="st69" d="M324.48,321.91l-22.79-12.4c1.13-0.53,2.2-1.15,3.22-1.85l22.79,12.4
						C326.68,320.76,325.61,321.38,324.48,321.91"/>
					<path class="st68" d="M327.7,320.06l-22.79-12.4c0.78-0.54,1.52-1.13,2.23-1.77l22.79,12.4
						C329.22,318.94,328.48,319.52,327.7,320.06"/>
					<path class="st71" d="M329.93,318.3l-22.79-12.4c0.65-0.59,1.28-1.22,1.87-1.89l22.79,12.4
						C331.2,317.08,330.58,317.71,329.93,318.3"/>
					<path class="st63" d="M331.8,316.41L309,304.01c0.28-0.32,0.56-0.65,0.82-0.98l22.79,12.4
						C332.35,315.76,332.08,316.09,331.8,316.41"/>
				</g>
			</g>
			<g class="st1">
				<defs>
					<path id="SVGID_95_" class="st1" d="M303.42,199.27l22.79,12.4c0.7,0.38,1.35,0.83,1.95,1.35c3.01,2.6,5.12,6.83,6.32,12.7
						l-22.79-12.4c-1.2-5.87-3.3-10.1-6.32-12.7C304.77,200.11,304.12,199.66,303.42,199.27z"/>
				</defs>
				<clipPath id="SVGID_6_">
					<use xlink:href="#SVGID_95_"  style="overflow:visible;"/>
				</clipPath>
				<g class="st12">
					<path class="st66" d="M334.48,225.72l-22.79-12.4c-1.2-5.87-3.3-10.1-6.32-12.7c-0.6-0.52-1.25-0.96-1.95-1.35l22.79,12.4
						c0.7,0.38,1.35,0.83,1.95,1.35C331.18,215.62,333.29,219.85,334.48,225.72"/>
				</g>
			</g>
			<g class="st1">
				<defs>
					<path id="SVGID_97_" class="st1" d="M330.47,232.46l22.79,12.4c-7.63-4.15-16.78-5.48-27.43-3.99
						c-7.56,1.06-14.48,3.67-20.76,7.82c-6.29,4.14-11.09,9.3-14.43,15.49l-22.79-12.4c3.34-6.18,8.14-11.34,14.43-15.49
						c6.28-4.15,13.19-6.76,20.76-7.82C313.7,226.98,322.84,228.31,330.47,232.46z"/>
				</defs>
				<clipPath id="SVGID_8_">
					<use xlink:href="#SVGID_97_"  style="overflow:visible;"/>
				</clipPath>
				<g class="st16">
					<path class="st64" d="M290.66,264.18l-22.79-12.4c0.76-1.41,1.6-2.78,2.52-4.08l22.79,12.4
						C292.26,261.4,291.42,262.77,290.66,264.18"/>
					<path class="st63" d="M293.18,260.1l-22.79-12.4c0.88-1.25,1.82-2.45,2.84-3.6l22.79,12.4
						C295,257.65,294.05,258.85,293.18,260.1"/>
					<path class="st71" d="M296.02,256.5l-22.79-12.4c1.07-1.21,2.22-2.37,3.45-3.48l22.79,12.4
						C298.24,254.13,297.09,255.28,296.02,256.5"/>
					<path class="st68" d="M299.46,253.02l-22.79-12.4c1.45-1.3,3.01-2.53,4.67-3.69l22.79,12.4
						C302.47,250.49,300.91,251.72,299.46,253.02"/>
					<path class="st69" d="M304.14,249.33l-22.79-12.4c0.31-0.22,0.63-0.43,0.95-0.64c2.02-1.34,4.12-2.52,6.27-3.53l22.79,12.4
						c-2.16,1.02-4.25,2.19-6.27,3.53C304.76,248.91,304.45,249.12,304.14,249.33"/>
					<path class="st70" d="M311.36,245.16l-22.79-12.4c4.53-2.14,9.36-3.57,14.48-4.29c7.04-0.99,13.43-0.74,19.15,0.74l22.79,12.4
						c-5.72-1.48-12.11-1.73-19.15-0.74C320.72,241.6,315.89,243.03,311.36,245.16"/>
					<path class="st69" d="M344.99,241.61l-22.79-12.4c2.45,0.63,4.77,1.49,6.98,2.58l22.79,12.4
						C349.76,243.11,347.44,242.25,344.99,241.61"/>
					<path class="st68" d="M351.97,244.19l-22.79-12.4c0.44,0.21,0.87,0.44,1.3,0.67l22.79,12.4
						C352.84,244.63,352.41,244.41,351.97,244.19"/>
				</g>
			</g>
			<g class="st1">
				<defs>
					<path id="SVGID_99_" class="st1" d="M283.05,355.13l-22.79-12.4c-5.39-2.93-9.78-7.11-13.16-12.54
						c-9.05-14.47-13.54-36.47-13.48-66.02c0.06-31,4.9-54.73,14.53-71.17c9.62-16.44,25.03-26.15,46.19-29.13
						c11.34-1.59,20.89-0.53,28.68,3.19c0.71,0.34,1.39,0.69,2.07,1.06l22.79,12.4c-0.67-0.37-1.36-0.72-2.07-1.06
						c-7.79-3.71-17.34-4.78-28.68-3.19c-21.16,2.97-36.57,12.69-46.19,29.13c-9.63,16.45-14.47,40.18-14.53,71.17
						c-0.05,29.54,4.44,51.55,13.48,66.02C273.27,348.02,277.66,352.2,283.05,355.13z"/>
				</defs>
				<clipPath id="SVGID_10_">
					<use xlink:href="#SVGID_99_"  style="overflow:visible;"/>
				</clipPath>
				<g class="st17">
					<path class="st66" d="M283.05,355.13l-22.79-12.4c-5.39-2.93-9.78-7.11-13.16-12.54c-9.05-14.47-13.54-36.47-13.48-66.02
						c0.04-23.54,2.85-42.89,8.41-58.05l22.79,12.4c-5.57,15.15-8.37,34.5-8.41,58.05c-0.05,29.54,4.44,51.55,13.48,66.02
						C273.27,348.02,277.66,352.2,283.05,355.13"/>
					<path class="st65" d="M264.81,218.53l-22.79-12.4c1.43-3.9,3.04-7.51,4.84-10.85l22.79,12.4
						C267.86,211.02,266.24,214.63,264.81,218.53"/>
					<path class="st64" d="M269.65,207.68l-22.79-12.4c0.42-0.77,0.84-1.53,1.28-2.27c0.87-1.49,1.79-2.92,2.76-4.3l22.79,12.4
						c-0.97,1.38-1.89,2.81-2.76,4.3C270.49,206.14,270.07,206.9,269.65,207.68"/>
					<path class="st63" d="M273.69,201.1l-22.79-12.4c1.26-1.8,2.6-3.5,4.02-5.11l22.79,12.4
						C276.29,197.6,274.95,199.3,273.69,201.1"/>
					<path class="st71" d="M277.71,195.99l-22.79-12.4c1.41-1.6,2.91-3.11,4.48-4.52l22.79,12.4
						C280.62,192.88,279.13,194.38,277.71,195.99"/>
					<path class="st68" d="M282.19,191.46l-22.79-12.4c1.74-1.57,3.58-3.02,5.52-4.36l22.79,12.4
						C285.77,188.44,283.93,189.89,282.19,191.46"/>
					<path class="st69" d="M287.71,187.1l-22.79-12.4c2.6-1.79,5.37-3.39,8.31-4.77l22.79,12.4
						C293.08,183.72,290.31,185.31,287.71,187.1"/>
					<path class="st70" d="M296.02,182.33l-22.79-12.4c6.25-2.94,13.28-4.96,21.1-6.06c8.25-1.16,15.55-0.91,21.91,0.74l22.79,12.4
						c-6.36-1.65-13.67-1.9-21.91-0.74C309.3,177.37,302.27,179.39,296.02,182.33"/>
					<path class="st69" d="M339.03,177.01l-22.79-12.4c2.39,0.62,4.64,1.43,6.77,2.45c0.16,0.08,0.32,0.16,0.48,0.23l22.79,12.4
						c-0.16-0.08-0.32-0.16-0.48-0.23C343.67,178.45,341.42,177.63,339.03,177.01"/>
					<path class="st68" d="M346.28,179.69l-22.79-12.4c0.54,0.27,1.07,0.54,1.59,0.82l22.79,12.4
						C347.35,180.23,346.82,179.96,346.28,179.69"/>
				</g>
			</g>
			<g>
				<path class="st61" d="M361.54,251.04c8.97,8.85,13.44,22.34,13.41,40.45c-0.02,11.91-2.27,22.67-6.75,32.27
					c-4.48,9.6-11,17.54-19.54,23.79c-8.55,6.26-18.65,10.2-30.29,11.84c-23.28,3.27-39.44-2.32-48.48-16.8
					c-9.05-14.47-13.54-36.47-13.48-66.02c0.06-31,4.9-54.73,14.53-71.17c9.62-16.44,25.03-26.15,46.19-29.13
					c11.34-1.59,20.89-0.53,28.68,3.19c7.78,3.72,13.66,9.22,17.65,16.49c3.99,7.27,6.35,15.5,7.1,24.7l-36.06,5.07
					c-1.2-5.87-3.3-10.1-6.32-12.7c-3.02-2.59-7.33-3.5-12.92-2.71c-8.62,1.21-14.83,6.13-18.62,14.74
					c-3.8,8.61-5.78,21.65-5.97,39.14c3.34-6.18,8.14-11.34,14.43-15.49c6.28-4.15,13.19-6.76,20.76-7.82
					C340.66,238.79,352.56,242.19,361.54,251.04z M332.62,315.43c3.86-4.86,5.8-11.06,5.82-18.56c0.01-7.67-1.87-13.44-5.64-17.32
					s-9.21-5.32-16.31-4.32c-6.5,0.91-11.92,3.76-16.23,8.52c-4.32,4.77-6.48,10.99-6.5,18.66c-0.01,7.83,1.98,13.67,5.98,17.51
					c4,3.85,9.7,5.25,17.11,4.21C323.5,323.19,328.76,320.29,332.62,315.43"/>
			</g>
		</g>
	</g>
</g>
</svg>
