<svg width="64" height="64" viewBox="0 0 64 64" fill="none" xmlns="http://www.w3.org/2000/svg">
<path d="M40.5701 2.5H23.4301C22.6016 2.5 21.9301 3.17157 21.9301 4V12C21.9301 12.8284 22.6016 13.5 23.4301 13.5H40.5701C41.3985 13.5 42.0701 12.8284 42.0701 12V4C42.0701 3.17157 41.3985 2.5 40.5701 2.5Z" fill="#ACB3BA" id="id_116"></path>
<path d="M48 10.5H16C12.9624 10.5 10.5 12.9624 10.5 16V56C10.5 59.0376 12.9624 61.5 16 61.5H48C51.0376 61.5 53.5 59.0376 53.5 56V16C53.5 12.9624 51.0376 10.5 48 10.5Z" fill="#E6E6E6" id="id_117"></path>
<path d="M42.5701 53.5H21.4301C21.0322 53.5 20.6507 53.342 20.3694 53.0607C20.0881 52.7794 19.9301 52.3978 19.9301 52C19.9301 51.6022 20.0881 51.2206 20.3694 50.9393C20.6507 50.658 21.0322 50.5 21.4301 50.5H42.5701C42.9679 50.5 43.3494 50.658 43.6307 50.9393C43.912 51.2206 44.0701 51.6022 44.0701 52C44.0701 52.3978 43.912 52.7794 43.6307 53.0607C43.3494 53.342 42.9679 53.5 42.5701 53.5Z" fill="#ACB3BA" id="id_118"></path>
<path d="M48 10.5H42.07V4C42.07 3.60218 41.912 3.22064 41.6307 2.93934C41.3494 2.65804 40.9678 2.5 40.57 2.5H23.43C23.0322 2.5 22.6506 2.65804 22.3693 2.93934C22.088 3.22064 21.93 3.60218 21.93 4V10.5H16C14.5421 10.5026 13.1447 11.083 12.1138 12.1138C11.083 13.1447 10.5026 14.5421 10.5 16V56C10.5026 57.4579 11.083 58.8553 12.1138 59.8862C13.1447 60.917 14.5421 61.4974 16 61.5H48C49.4579 61.4974 50.8553 60.917 51.8862 59.8862C52.917 58.8553 53.4974 57.4579 53.5 56V16C53.4974 14.5421 52.917 13.1447 51.8862 12.1138C50.8553 11.083 49.4579 10.5026 48 10.5V10.5ZM24.93 5.5H39.07V10.5H24.93V5.5ZM50.5 56C50.5 56.663 50.2366 57.2989 49.7678 57.7678C49.2989 58.2366 48.663 58.5 48 58.5H16C15.337 58.5 14.7011 58.2366 14.2322 57.7678C13.7634 57.2989 13.5 56.663 13.5 56V16C13.5 15.337 13.7634 14.7011 14.2322 14.2322C14.7011 13.7634 15.337 13.5 16 13.5H48C48.663 13.5 49.2989 13.7634 49.7678 14.2322C50.2366 14.7011 50.5 15.337 50.5 16V56Z" fill="#ffffff" id="id_119"></path>
<path d="M42.5701 50.5H21.4301C21.0322 50.5 20.6507 50.658 20.3694 50.9393C20.0881 51.2206 19.9301 51.6022 19.9301 52C19.9301 52.3978 20.0881 52.7794 20.3694 53.0607C20.6507 53.342 21.0322 53.5 21.4301 53.5H42.5701C42.9679 53.5 43.3494 53.342 43.6307 53.0607C43.912 52.7794 44.0701 52.3978 44.0701 52C44.0701 51.6022 43.912 51.2206 43.6307 50.9393C43.3494 50.658 42.9679 50.5 42.5701 50.5Z" fill="#5c6b6e" id="id_120"></path>
</svg>