<svg version="1.1" xmlns="http://www.w3.org/2000/svg" xmlns:xlink="http://www.w3.org/1999/xlink" x="0px" y="0px" viewBox="0 0 512 512" style="enable-background:new 0 0 512 512;" xml:space="preserve">
<g id="_x31_66_x2C__Logistic_x2C__Ok_x2C__Success_x2C__Tick">
<g>
<g>
<path style="fill: rgb(31, 185, 219);" d="M441.63,116.34L486,258.56L441.63,402.33L326.9,490H185.09L70.37,408.89L26,266.68L70.37,122.91
				L185.09,30H326.9L441.63,116.34z" id="id_110"></path>
</g>
<g>
<path style="fill:#FFFFFF;" d="M340.7,186.43c7.49,8.12,6.979,20.77-1.13,28.27l-130,120c-3.74,3.439-8.6,5.3-13.57,5.3
				c-1.47,0-2.95-0.16-4.41-0.49c-6.42-1.45-11.72-5.97-14.16-12.08l-20-50c-4.1-10.26,0.89-21.9,11.14-25.999
				c10.26-4.1,21.9,0.89,26,11.14l9.21,23.029l108.65-100.3C320.55,177.81,333.2,178.32,340.7,186.43z" id="id_111"></path>
</g>
<g>
<path style="fill: rgb(31, 185, 219);" d="M256,110c82.84,0,150,67.16,150,150s-67.16,150-150,150s-150-67.16-150-150S173.16,110,256,110z
				 M339.57,214.7c8.109-7.5,8.62-20.15,1.13-28.27c-7.5-8.11-20.15-8.62-28.271-1.13L203.78,285.6l-9.21-23.029
				c-4.1-10.251-15.74-15.24-26-11.14c-10.25,4.1-15.24,15.74-11.14,25.999l20,50c2.44,6.11,7.74,10.63,14.16,12.08
				c1.46,0.33,2.94,0.49,4.41,0.49c4.97,0,9.83-1.86,13.57-5.3L339.57,214.7z" id="id_112"></path>
</g>
</g>
</g>
<g id="Layer_1">
</g>
</svg>