<svg version="1.1" xmlns="http://www.w3.org/2000/svg" xmlns:xlink="http://www.w3.org/1999/xlink" x="0px" y="0px" width="512px" height="512px" viewBox="0 0 512 512" style="enable-background:new 0 0 512 512;" xml:space="preserve">
<g id="F408_x2C__Arrow_x2C__arrows_x2C__check_x2C__okay_x2C__tick">
<path style="fill: rgb(168, 177, 179);" d="M256,26c127.03,0,230,102.97,230,230c0,127.03-102.97,230-230,230C128.97,486,26,383.03,26,256
		C26,128.97,128.97,26,256,26z" id="id_101"></path>
<path style="fill: rgb(255, 255, 255);" d="M256,496c-64.108,0-124.378-24.964-169.707-70.293C40.964,380.379,16,320.108,16,256
		S40.964,131.622,86.293,86.293C131.622,40.964,191.892,16,256,16s124.379,24.964,169.707,70.293
		C471.036,131.622,496,191.892,496,256s-24.964,124.379-70.293,169.707C380.379,471.036,320.108,496,256,496z M256,36
		C134.691,36,36,134.691,36,256s98.691,220,220,220s220-98.691,220-220S377.309,36,256,36z" id="id_102"></path>
<path style="fill: rgb(255, 255, 255);" d="M196,346c-0.376,0-0.754-0.021-1.132-0.064c-3.028-0.345-5.733-2.052-7.349-4.636l-50-80
		c-2.927-4.683-1.503-10.853,3.18-13.78c4.683-2.927,10.852-1.504,13.78,3.18l43.338,69.34l156.111-156.111
		c3.906-3.905,10.236-3.905,14.143,0c3.905,3.905,3.905,10.237,0,14.143l-165,165C201.186,344.957,198.637,346,196,346z" id="id_103"></path>
</g>
<g id="Layer_1">
</g>
</svg>